<svg width="50" height="55" viewBox="0 0 50 55" fill="none" xmlns="http://www.w3.org/2000/svg">
<path d="M11.2481 42.2496L17.1496 52.4719C18.4231 54.6801 21.2878 55.4977 23.5533 54.188C25.795 52.8926 26.5654 50.0284 25.2685 47.7849L21.7529 41.6948L24.7975 39.937C25.3578 39.6129 25.5501 38.8965 25.2264 38.3362L23.7025 35.6967C23.8843 35.6614 25.079 35.4271 46.1485 31.2939C48.7532 31.1525 50.3137 28.3038 48.9981 26.0264L45.1034 19.2808L47.5923 15.5111C47.8367 15.1404 47.8514 14.6638 47.6294 14.2793L45.2856 10.2198C45.0636 9.83533 44.642 9.61011 44.2003 9.6362L39.6918 9.90674L35.3682 2.41772C34.742 1.33282 33.62 0.675934 32.3675 0.66037C32.3524 0.659912 32.3378 0.659912 32.3227 0.659912C31.1123 0.659912 30.0137 1.26233 29.3628 2.28085L14.0542 21.7825L4.102 27.5284C0.187664 29.7874 -1.16823 34.8091 1.09953 38.7339C3.17137 42.3228 7.53935 43.7346 11.2481 42.2496ZM23.2393 48.9572C23.8865 50.0769 23.5034 51.5097 22.3805 52.1583C21.254 52.8097 19.8193 52.4096 19.1794 51.3005L13.32 41.1505L17.3794 38.8067C24.1607 50.5539 23.1303 48.769 23.2393 48.9572ZM20.581 39.6646L19.4092 37.6349L21.4389 36.463L22.6108 38.4927L20.581 39.6646ZM43.618 12.0189L45.2376 14.824L43.7933 17.0112L41.0019 12.1759L43.618 12.0189ZM31.3229 3.5658C31.6374 3.05127 32.1364 2.99817 32.3387 3.00366C32.5387 3.00595 33.0372 3.06821 33.338 3.58914L46.9684 27.1983C47.4124 27.9669 46.8727 28.9332 45.9823 28.9552C45.8226 28.9589 45.7489 28.9877 45.3396 29.0641L30.9215 4.09085C31.224 3.70175 31.263 3.66422 31.3229 3.5658ZM29.3619 6.07755L42.9085 29.5411L22.4638 33.5511L16.2474 22.7841L29.3619 6.07755ZM3.12925 37.5621C2.61473 36.6717 2.34282 35.661 2.34282 34.6383C2.34282 32.5482 3.46617 30.6018 5.27388 29.5581L14.4076 24.2846L20.267 34.4333L11.1333 39.7072C8.33494 41.3221 4.7447 40.3599 3.12925 37.5621Z" fill="#8860D0"/>
</svg>
