<svg width="60" height="43" viewBox="0 0 60 43" fill="none" xmlns="http://www.w3.org/2000/svg">
<path d="M59.0323 35.3467H57.0968V12.3886C57.097 11.238 56.7118 10.1228 56.0064 9.23146C55.301 8.34018 54.3187 7.72764 53.2258 7.49753C53.155 6.66914 52.8382 5.88343 52.3187 5.24751C51.7991 4.61159 51.1021 4.15641 50.3226 3.94402V2.60646C50.3214 2.25704 50.2524 1.9114 50.1196 1.58995C49.9868 1.2685 49.7929 0.977764 49.5493 0.734909C49.3058 0.492053 49.0175 0.302006 48.7015 0.175991C48.3855 0.0499757 48.0483 -0.00945136 47.7097 0.00121995C41.6323 0.0670945 35.6224 1.32381 30 3.70446C24.3957 1.33123 18.4062 0.0746593 12.3484 0.00121995C12.0098 -0.00945136 11.6725 0.0499757 11.3566 0.175991C11.0406 0.302006 10.7523 0.492053 10.5087 0.734909C10.2652 0.977764 10.0712 1.2685 9.93844 1.58995C9.80563 1.9114 9.73662 2.25704 9.73548 2.60646V3.94402C8.94521 4.14575 8.23545 4.5963 7.70478 5.2331C7.1741 5.8699 6.84885 6.66135 6.77419 7.49753C5.68126 7.72764 4.69897 8.34018 3.99357 9.23146C3.28818 10.1228 2.903 11.238 2.90323 12.3886V35.3467H0.967742C0.711081 35.3467 0.464932 35.4518 0.283445 35.639C0.101958 35.8262 0 36.0801 0 36.3449V38.3412C0 39.4001 0.407833 40.4157 1.13378 41.1645C1.85973 41.9133 2.84432 42.3339 3.87097 42.3339H56.129C57.1557 42.3339 58.1403 41.9133 58.8662 41.1645C59.5922 40.4157 60 39.4001 60 38.3412V36.3449C60 36.0801 59.898 35.8262 59.7166 35.639C59.5351 35.4518 59.2889 35.3467 59.0323 35.3467ZM51.2903 7.86686V29.2877C51.2903 29.8357 51.0793 30.3613 50.7036 30.7488C50.3279 31.1363 49.8184 31.354 49.2871 31.354H35.6419C39.6122 30.2524 43.6962 29.6459 47.8064 29.5473C48.4645 29.5316 49.0901 29.2495 49.5482 28.7621C50.0063 28.2746 50.2601 27.6209 50.2548 26.942V6.07014C50.5674 6.24681 50.8283 6.50667 51.0104 6.82267C51.1925 7.13867 51.2892 7.49924 51.2903 7.86686ZM47.7 1.99757C47.8622 1.99732 48.0182 2.06169 48.1355 2.17725C48.1937 2.23349 48.2401 2.30152 48.2718 2.37709C48.3034 2.45265 48.3196 2.53413 48.3194 2.61644V26.942C48.3194 27.1001 48.2599 27.252 48.1534 27.3657C48.0468 27.4793 47.9016 27.5457 47.7484 27.5509C42.0133 27.6414 36.3364 28.7524 30.9677 30.8349V5.40136C36.2987 3.22902 41.9686 2.07563 47.7 1.99757ZM11.671 2.60646C11.6707 2.52415 11.6869 2.44267 11.7185 2.36711C11.7502 2.29154 11.7966 2.22351 11.8548 2.16726C11.9109 2.10989 11.9773 2.06449 12.0504 2.03366C12.1235 2.00283 12.2017 1.98717 12.2806 1.98759C18.0192 2.06641 23.6958 3.22323 29.0323 5.40136V30.8349C23.6605 28.7513 17.9803 27.6403 12.2419 27.5509C12.0887 27.5457 11.9435 27.4793 11.837 27.3657C11.7304 27.252 11.6709 27.1001 11.671 26.942V2.60646ZM8.70968 7.86686C8.71081 7.49924 8.80746 7.13867 8.98958 6.82267C9.17169 6.50667 9.43261 6.24681 9.74516 6.07014V26.942C9.7399 27.6209 9.99373 28.2746 10.4518 28.7621C10.9099 29.2495 11.5355 29.5316 12.1935 29.5473C16.2973 29.6476 20.3747 30.2541 24.3387 31.354H10.7129C10.1816 31.354 9.67209 31.1363 9.29641 30.7488C8.92073 30.3613 8.70968 29.8357 8.70968 29.2877V7.86686ZM4.83871 12.3886C4.84039 11.7708 5.0273 11.1686 5.37381 10.6647C5.72032 10.1607 6.20947 9.77968 6.77419 9.57374V29.2877C6.77419 30.3652 7.18916 31.3985 7.92781 32.1604C8.66647 32.9223 9.66829 33.3503 10.7129 33.3503H49.2871C50.3317 33.3503 51.3335 32.9223 52.0722 32.1604C52.8108 31.3985 53.2258 30.3652 53.2258 29.2877V9.57374C53.7905 9.77968 54.2797 10.1607 54.6262 10.6647C54.9727 11.1686 55.1596 11.7708 55.1613 12.3886V35.3467H4.83871V12.3886ZM58.0645 38.3412C58.0645 38.8707 57.8606 39.3785 57.4976 39.7528C57.1347 40.1272 56.6424 40.3376 56.129 40.3376H3.87097C3.35765 40.3376 2.86535 40.1272 2.50237 39.7528C2.1394 39.3785 1.93548 38.8707 1.93548 38.3412V37.343H58.0645V38.3412Z" fill="#45ABFD"/>
<path d="M14.3516 6.5892C15.3194 6.65907 16.2871 6.7489 17.2548 6.86869H17.4194C17.676 6.88457 17.9283 6.79464 18.1207 6.61868C18.313 6.44271 18.4298 6.19513 18.4452 5.9304C18.4606 5.66567 18.3734 5.40546 18.2028 5.20704C18.0322 5.00861 17.7921 4.88821 17.5355 4.87233C16.5677 4.75255 15.5226 4.65273 14.5161 4.58286C14.2595 4.56565 14.0067 4.65431 13.8134 4.82934C13.6201 5.00437 13.5022 5.25142 13.4855 5.51615C13.4688 5.78089 13.5548 6.04161 13.7245 6.24098C13.8941 6.44034 14.1337 6.56201 14.3903 6.57921L14.3516 6.5892Z" fill="#45ABFD"/>
<path d="M14.3516 9.75329C16.1547 9.87508 17.9506 10.0916 19.7323 10.4021H19.8968C20.1534 10.4246 20.4083 10.341 20.6052 10.1697C20.8021 9.99845 20.925 9.7535 20.9468 9.48877C20.9686 9.22403 20.8876 8.96121 20.7215 8.7581C20.5554 8.55499 20.318 8.42825 20.0613 8.40575C18.2247 8.09297 16.374 7.87642 14.5161 7.75693C14.2595 7.73972 14.0067 7.82838 13.8134 8.00341C13.6201 8.17844 13.5022 8.42549 13.4855 8.69023C13.4688 8.95496 13.5548 9.21569 13.7245 9.41505C13.8941 9.61441 14.1337 9.73608 14.3903 9.75329H14.3516Z" fill="#45ABFD"/>
<path d="M13.4516 14.0456C13.4357 14.3088 13.5214 14.5678 13.69 14.7661C13.8587 14.9643 14.0965 15.0857 14.3516 15.1037C18.2932 15.3589 22.1915 16.0961 25.9645 17.2996C26.0859 17.339 26.2136 17.3533 26.3403 17.3417C26.467 17.3301 26.5903 17.2929 26.7031 17.2322C26.8159 17.1715 26.9159 17.0884 26.9976 16.9878C27.0793 16.8872 27.1409 16.771 27.1791 16.6458C27.2172 16.5207 27.231 16.3889 27.2198 16.2582C27.2086 16.1275 27.1725 16.0004 27.1137 15.8841C27.0548 15.7677 26.9743 15.6645 26.8768 15.5803C26.7792 15.496 26.6665 15.4324 26.5452 15.3931C22.6365 14.148 18.5988 13.3841 14.5161 13.1173C14.3867 13.1036 14.2559 13.1169 14.1315 13.1566C14.0072 13.1962 13.8919 13.2613 13.7925 13.348C13.6931 13.4346 13.6117 13.5411 13.5532 13.661C13.4946 13.7808 13.46 13.9116 13.4516 14.0456Z" fill="#45ABFD"/>
<path d="M26.5742 19.1263C22.6566 17.8755 18.6089 17.1082 14.5161 16.8405C14.389 16.832 14.2616 16.8493 14.141 16.8916C14.0204 16.9339 13.9091 17.0003 13.8134 17.087C13.6201 17.262 13.5022 17.509 13.4855 17.7738C13.4688 18.0385 13.5548 18.2992 13.7245 18.4986C13.8941 18.698 14.1337 18.8196 14.3903 18.8368C18.3319 19.0921 22.2302 19.8293 26.0032 21.0328C26.2483 21.1123 26.514 21.088 26.7418 20.9654C26.9695 20.8428 27.1407 20.6318 27.2177 20.379C27.2947 20.1262 27.2712 19.8522 27.1523 19.6173C27.0335 19.3823 26.829 19.2057 26.5839 19.1263H26.5742Z" fill="#45ABFD"/>
<path d="M26.5742 23.0093C22.6566 21.7585 18.6089 20.9912 14.5161 20.7235C14.389 20.715 14.2616 20.7323 14.141 20.7746C14.0204 20.8169 13.9091 20.8833 13.8134 20.97C13.6201 21.145 13.5022 21.392 13.4855 21.6568C13.4688 21.9215 13.5548 22.1822 13.7245 22.3816C13.8941 22.581 14.1337 22.7026 14.3903 22.7198C18.3319 22.9749 22.2302 23.7121 26.0032 24.9158C26.1246 24.9552 26.2523 24.9694 26.379 24.9579C26.5057 24.9463 26.629 24.9091 26.7418 24.8484C26.8545 24.7877 26.9546 24.7046 27.0363 24.604C27.118 24.5034 27.1796 24.3872 27.2177 24.262C27.2559 24.1368 27.2697 24.0051 27.2585 23.8744C27.2473 23.7437 27.2112 23.6166 27.1523 23.5003C27.0935 23.3839 27.013 23.2807 26.9154 23.1965C26.8179 23.1122 26.7052 23.0486 26.5839 23.0093H26.5742Z" fill="#45ABFD"/>
<path d="M33.7065 17.3795C33.8027 17.3945 33.9006 17.3945 33.9968 17.3795C37.7698 16.1757 41.6681 15.4386 45.6097 15.1835C45.8664 15.1663 46.1059 15.0446 46.2756 14.8452C46.4453 14.6459 46.5312 14.3851 46.5145 14.1204C46.4979 13.8557 46.3799 13.6086 46.1866 13.4336C45.9933 13.2586 45.7406 13.1699 45.4839 13.1871C41.3913 13.4246 37.3405 14.1618 33.4161 15.3831C33.1595 15.4228 32.9286 15.5661 32.7744 15.7813C32.6201 15.9966 32.5551 16.2663 32.5936 16.531C32.6321 16.7957 32.7709 17.0339 32.9797 17.193C33.1884 17.3521 33.4498 17.4192 33.7065 17.3795Z" fill="#45ABFD"/>
<path d="M33.7064 21.0727C33.8026 21.0878 33.9005 21.0878 33.9967 21.0727C37.7697 19.869 41.668 19.1319 45.6096 18.8768C45.8663 18.8596 46.1058 18.7379 46.2755 18.5385C46.4452 18.3392 46.5312 18.0784 46.5145 17.8137C46.4978 17.549 46.3798 17.3019 46.1866 17.1269C45.9933 16.9519 45.7405 16.8632 45.4838 16.8804C41.3779 17.1448 37.3171 17.9121 33.3871 19.1662C33.1304 19.2059 32.8995 19.3492 32.7453 19.5645C32.591 19.7797 32.526 20.0494 32.5645 20.3141C32.603 20.5789 32.7419 20.817 32.9506 20.9761C33.1593 21.1352 33.4207 21.2023 33.6774 21.1626L33.7064 21.0727Z" fill="#45ABFD"/>
<path d="M33.7064 24.9557C33.8026 24.9707 33.9005 24.9707 33.9967 24.9557C37.7697 23.7519 41.668 23.0147 45.6096 22.7597C45.8663 22.7425 46.1058 22.6208 46.2755 22.4215C46.4452 22.2221 46.5312 21.9614 46.5145 21.6966C46.4978 21.4319 46.3798 21.1848 46.1866 21.0098C45.9933 20.8348 45.7405 20.7461 45.4838 20.7633C41.378 21.0278 37.3172 21.7951 33.3871 23.0492C33.26 23.0688 33.1379 23.1141 33.0278 23.1824C32.9177 23.2508 32.8217 23.3408 32.7453 23.4474C32.591 23.6627 32.526 23.9323 32.5645 24.1971C32.603 24.4618 32.7419 24.6999 32.9506 24.859C33.1593 25.0181 33.4207 25.0852 33.6774 25.0455L33.7064 24.9557Z" fill="#45ABFD"/>
</svg>
