<svg width="50" height="51" viewBox="0 0 50 51" fill="none" xmlns="http://www.w3.org/2000/svg">
<path d="M14.4066 21.7576H46.5828C47.5266 21.7576 48.3778 22.1423 48.9961 22.7603V22.7662C49.6141 23.3845 49.9992 24.2357 49.9992 25.1736V46.9826C49.9992 47.9201 49.6141 48.7771 48.9961 49.3951C48.3778 50.0138 47.5266 50.3982 46.5828 50.3982H14.4066C13.4688 50.3982 12.6117 50.0138 11.9938 49.3951C11.3754 48.7771 10.9906 47.9255 10.9906 46.9826V25.1736C10.9906 24.2357 11.3754 23.3787 11.9938 22.7603C12.6121 22.1423 13.4688 21.7576 14.4066 21.7576ZM46.5828 23.3193H14.4066C13.8969 23.3193 13.4359 23.5306 13.1 23.8666C12.7637 24.2029 12.5524 24.6638 12.5524 25.1736V46.9826C12.5524 47.4923 12.7637 47.9583 13.1 48.2947C13.4356 48.6302 13.8969 48.8365 14.4066 48.8365H46.5828C47.0926 48.8365 47.5586 48.6306 47.8949 48.2947C48.2309 47.9583 48.4375 47.4919 48.4375 46.9826V25.1736C48.4375 24.6638 48.2313 24.1978 47.8949 23.8615V23.8669C47.5586 23.531 47.0926 23.3193 46.5828 23.3193Z" fill="#FE7859"/>
<path d="M23.9719 15.2454H37.0234C37.7664 15.2454 38.4492 15.5489 38.9375 16.0422C39.4254 16.5356 39.7348 17.2137 39.7348 17.9563V22.5379V23.3188H38.9535H35.657H34.8766V22.5379V20.0008H26.1191V22.5383V23.3192H25.3379H22.0414H21.2605V22.5383V17.9563C21.2605 17.2137 21.5641 16.5301 22.052 16.0422C22.5453 15.5489 23.2238 15.2454 23.9719 15.2454ZM37.023 16.8071H23.9719C23.657 16.8071 23.3699 16.9368 23.1582 17.1485C22.9523 17.3547 22.8227 17.6418 22.8227 17.9563V21.7571H24.5574V19.2196V18.4391H25.3383H35.657H36.4383V19.2196V21.7575H38.173V17.9567C38.173 17.6418 38.043 17.3547 37.8371 17.1489H37.8313C37.625 16.9372 37.3379 16.8071 37.023 16.8071Z" fill="#FE7859"/>
<path d="M8.62656 42.7803C9.05508 42.7803 9.40742 43.1267 9.40742 43.5607C9.40742 43.9889 9.05508 44.3412 8.62656 44.3412H2.34258C1.70273 44.3412 1.11719 44.0756 0.688672 43.6529V43.6474C0.265625 43.2244 0 42.6392 0 41.9935V2.7416C0 2.10176 0.265625 1.51621 0.688672 1.08809C1.11133 0.665039 1.69688 0.399414 2.34258 0.399414H24.3078C24.6441 0.399414 24.9586 0.464648 25.252 0.594727C25.5395 0.724805 25.7996 0.914258 26.0328 1.1584V1.16387V1.1584L31.927 7.46465C31.943 7.48105 31.9539 7.49707 31.9703 7.51347C32.1594 7.7248 32.2953 7.9584 32.393 8.20215C32.4906 8.46816 32.5449 8.7498 32.5449 9.04824V12.8764C32.5449 13.31 32.1926 13.6572 31.7641 13.6572C31.3305 13.6572 30.9777 13.31 30.9777 12.8764V9.04824C30.9777 8.93965 30.9672 8.84238 30.9344 8.75527C30.902 8.68496 30.8641 8.61972 30.8152 8.55449C30.8043 8.54394 30.793 8.53847 30.7824 8.52754L24.8938 2.22129C24.8121 2.13457 24.7203 2.06934 24.6227 2.02051C24.5309 1.98262 24.4277 1.96113 24.3082 1.96113H2.34258C2.13125 1.96113 1.93594 2.04785 1.79492 2.19434L1.78945 2.18887C1.64844 2.32949 1.56172 2.53027 1.56172 2.7416V41.9935C1.56172 42.2103 1.64844 42.4057 1.78945 42.5467L1.79492 42.5521C1.93594 42.6881 2.13086 42.7803 2.34258 42.7803H8.62656Z" fill="#FE7859"/>
<path d="M27.6645 35.9915L14.266 33.4477C13.3606 33.2797 12.525 32.884 11.9238 32.2821C11.3484 31.7075 10.9906 30.954 10.9906 30.0481H12.5524C12.5524 30.509 12.7371 30.8887 13.0297 31.1817C13.4039 31.55 13.9516 31.8051 14.5535 31.9188L27.952 34.4618L27.6645 35.9915ZM49.9988 30.0481C49.9988 30.9536 49.641 31.702 49.066 32.2766V32.2821C48.4641 32.884 47.6293 33.2801 46.7293 33.4477L33.3305 36.0125L33.0379 34.4836L46.4363 31.9188C47.0438 31.7997 47.5914 31.5504 47.9653 31.1817C48.2582 30.8887 48.4371 30.5086 48.4371 30.0481H49.9988Z" fill="#FE7859"/>
<path d="M19.8996 7.37744C20.3332 7.37744 20.6805 7.72471 20.6805 8.1583C20.6805 8.58682 20.3332 8.93916 19.8996 8.93916H9.00118C8.5672 8.93916 8.21993 8.58682 8.21993 8.1583C8.21993 7.72471 8.5672 7.37744 9.00118 7.37744H19.8996ZM5.28087 7.37744C5.71485 7.37744 6.06759 7.72471 6.06759 8.1583C6.06759 8.58682 5.71524 8.93916 5.28087 8.93916H4.69571C4.2668 8.93916 3.91446 8.58682 3.91446 8.1583C3.91446 7.72471 4.2668 7.37744 4.69571 7.37744H5.28087Z" fill="#FE7859"/>
<path d="M14.7645 14.4646C15.193 14.4646 15.5453 14.8166 15.5453 15.2455C15.5453 15.6791 15.193 16.0259 14.7645 16.0259H9.00079C8.56719 16.0259 8.21993 15.6791 8.21993 15.2455C8.21993 14.8169 8.56719 14.4646 9.00079 14.4646H14.7645ZM5.28126 14.4646C5.71485 14.4646 6.06758 14.8166 6.06758 15.2455C6.06758 15.6791 5.71524 16.0259 5.28126 16.0259H4.69571C4.26719 16.0259 3.91446 15.6791 3.91446 15.2455C3.91446 14.8169 4.2668 14.4646 4.69571 14.4646H5.28126Z" fill="#FE7859"/>
<path d="M19.8996 10.9236C20.3332 10.9236 20.6805 11.2708 20.6805 11.7044C20.6805 12.1326 20.3332 12.4853 19.8996 12.4853H9.00118C8.5672 12.4853 8.21993 12.133 8.21993 11.7044C8.21993 11.2708 8.5672 10.9236 9.00118 10.9236H19.8996ZM5.28087 10.9236C5.71485 10.9236 6.06759 11.2708 6.06759 11.7044C6.06759 12.1326 5.71524 12.4853 5.28087 12.4853H4.69571C4.2668 12.4853 3.91446 12.133 3.91446 11.7044C3.91446 11.2708 4.2668 10.9236 4.69571 10.9236H5.28087Z" fill="#FE7859"/>
<path d="M25.1105 0.686523L32.2187 8.40254C32.5062 8.71699 32.4902 9.21035 32.1699 9.50293C32.0234 9.63848 31.8344 9.70918 31.6441 9.70918H26.748C25.9133 9.70918 25.1594 9.36738 24.6117 8.82012C24.5957 8.80371 24.5789 8.78769 24.5629 8.77129C24.0422 8.22871 23.7223 7.4916 23.7223 6.6834V1.18027C23.7223 0.751758 24.0695 0.399414 24.5035 0.399414C24.7469 0.399414 24.9641 0.513086 25.1105 0.686523ZM29.866 8.14785L25.284 3.18066V6.68379C25.284 7.07402 25.4359 7.42637 25.6801 7.68652C25.6906 7.69746 25.7019 7.7084 25.7129 7.71934C25.9785 7.98496 26.3469 8.14746 26.748 8.14746L29.866 8.14785Z" fill="#FE7859"/>
<path d="M35.5051 4.60689C35.4184 5.02954 35.0067 5.30064 34.5836 5.20884C34.1606 5.12173 33.8895 4.71001 33.9762 4.29204L34.2746 2.87134L34.6649 1.02251C34.7406 0.65415 35.066 0.398682 35.4293 0.398682H36.7957H38.1621C38.5578 0.398682 38.8836 0.69165 38.9375 1.07642L39.5121 3.80923C39.9133 3.92329 40.3039 4.05884 40.6832 4.21587C41.0684 4.37329 41.4422 4.55767 41.8 4.75845L44.1914 3.19673C44.5004 2.99595 44.907 3.04478 45.1617 3.29985H45.1676L46.1328 4.26509C46.1434 4.28149 46.1598 4.29243 46.1711 4.30845L47.0981 5.23579C47.3688 5.50142 47.3965 5.92446 47.1852 6.22798L45.6395 8.59712C45.8453 8.95532 46.0246 9.32915 46.1871 9.71431C46.3391 10.0936 46.4746 10.4842 46.5883 10.8854L49.3754 11.4764C49.7606 11.5522 50.0207 11.8995 49.9992 12.2788V13.6026V14.969C49.9992 15.3647 49.7067 15.6956 49.3215 15.7444L46.5887 16.319C46.475 16.7256 46.3391 17.1163 46.1875 17.4901C45.9598 18.0377 45.6887 18.5581 45.3797 19.0413C45.1524 19.4096 44.6696 19.5182 44.3008 19.285C43.9375 19.0518 43.8293 18.5694 44.0621 18.2057C44.3281 17.7885 44.5559 17.3491 44.7457 16.894C44.9301 16.4491 45.0762 15.9936 45.1848 15.5276C45.2336 15.2186 45.4719 14.9635 45.7922 14.8932L48.4375 14.3401V13.6026H48.443V12.8706L45.7914 12.312C45.5043 12.2526 45.2602 12.0299 45.1895 11.721C45.0863 11.2385 44.9348 10.7721 44.7449 10.3116C44.5551 9.85611 44.3274 9.41665 44.0613 8.99947C43.9043 8.74986 43.8988 8.42447 44.0668 8.15884L45.5477 5.89243L45.0699 5.41001C45.0539 5.39946 45.0434 5.38814 45.0266 5.37173L44.5063 4.85142L42.2883 6.29907C42.0336 6.494 41.6809 6.51587 41.3996 6.33696C40.982 6.07134 40.543 5.8436 40.0875 5.65376C39.6426 5.46939 39.182 5.3229 38.7156 5.2147C38.4121 5.16587 38.1516 4.93267 38.0867 4.60728L37.5274 1.96079H36.7957H36.0578L35.8031 3.18618L35.5051 4.60689ZM36.7957 8.76587C36.3617 8.76587 36.0145 8.41861 36.0145 7.98501C36.0145 7.55142 36.3617 7.20415 36.7957 7.20415C38.5629 7.20415 40.1625 7.92017 41.3231 9.08032C42.4781 10.2354 43.1938 11.835 43.1938 13.6026C43.1938 14.069 43.1449 14.5299 43.0473 14.969C42.9496 15.4186 42.8031 15.853 42.6141 16.2702C42.4348 16.6608 41.9738 16.8342 41.5781 16.6553C41.1879 16.476 41.0195 16.0151 41.1988 15.6249C41.3395 15.3213 41.4481 14.9905 41.5238 14.6432C41.5946 14.3073 41.6324 13.96 41.6324 13.6022C41.6324 12.2682 41.0903 11.0588 40.2172 10.1807C39.3387 9.30845 38.1293 8.76587 36.7957 8.76587Z" fill="#FE7859"/>
<path d="M27.9195 30.0706H33.0758C33.4828 30.0706 33.8512 30.2385 34.1172 30.5038L34.1227 30.5092C34.3887 30.7756 34.5563 31.1495 34.5563 31.5561V37.2713C34.5563 38.3881 34.1012 39.4022 33.3633 40.1393C32.6316 40.8772 31.6121 41.3327 30.4949 41.3327C29.3777 41.3327 28.3637 40.8772 27.6266 40.1393C26.8941 39.4022 26.4332 38.3885 26.4332 37.2713V31.5561C26.4332 31.1495 26.6016 30.7749 26.8727 30.5092V30.5038C27.1438 30.2385 27.5129 30.0706 27.9195 30.0706ZM32.9949 31.6323H28.0008V37.2713C28.0008 37.9541 28.2774 38.5834 28.7328 39.0338C29.1883 39.4893 29.8121 39.7709 30.4949 39.7709C31.184 39.7709 31.807 39.4893 32.2625 39.0338C32.7125 38.5838 32.9949 37.9541 32.9949 37.2713V31.6323Z" fill="#FE7859"/>
<path d="M30.4945 37.9487C30.9258 37.9487 31.2754 37.5991 31.2754 37.1678C31.2754 36.7366 30.9258 36.387 30.4945 36.387C30.0633 36.387 29.7137 36.7366 29.7137 37.1678C29.7137 37.5991 30.0633 37.9487 30.4945 37.9487Z" fill="#FE7859"/>
</svg>
