<svg width="50" height="51" viewBox="0 0 50 51" fill="none" xmlns="http://www.w3.org/2000/svg">
<path d="M8.39844 2.21982C8.32513 2.13669 8.23497 2.07012 8.13394 2.02451C8.03292 1.97891 7.92335 1.95532 7.81251 1.95532C7.70167 1.95532 7.5921 1.97891 7.49107 2.02451C7.39005 2.07012 7.29988 2.13669 7.22657 2.21982L1.75782 8.46982C1.65623 8.58238 1.58958 8.72206 1.56601 8.87185C1.54245 9.02163 1.56297 9.17503 1.62509 9.31335C1.68721 9.45166 1.78823 9.56891 1.91584 9.6508C2.04346 9.73269 2.19214 9.77567 2.34376 9.77451H4.68751V30.8682C4.68751 31.9968 4.90979 33.1143 5.34167 34.1569C5.77354 35.1996 6.40656 36.1469 7.20456 36.9449C8.8162 38.5566 11.0021 39.462 13.2813 39.462H34.375V37.8995H13.2813C11.4165 37.8995 9.62803 37.1587 8.30941 35.8401C6.9908 34.5215 6.25001 32.7331 6.25001 30.8682V8.99326C6.25001 8.78606 6.1677 8.58734 6.02118 8.44083C5.87467 8.29432 5.67596 8.21201 5.46876 8.21201H4.06251L7.81251 3.91514L11.5625 8.21201H10.1563C9.94906 8.21201 9.75034 8.29432 9.60383 8.44083C9.45732 8.58734 9.37501 8.78606 9.37501 8.99326V30.8682C9.37501 31.9043 9.78656 32.8978 10.5191 33.6304C11.2517 34.3629 12.2453 34.7745 13.2813 34.7745H16.7578C19.1143 36.7746 22.1283 37.8308 25.2178 37.739C28.3074 37.6472 31.2533 36.414 33.487 34.2775C35.7206 32.141 37.0834 29.2528 37.3123 26.1704C37.5413 23.0879 36.6201 20.03 34.7266 17.587H36.7188C37.3404 17.587 37.9365 17.8339 38.376 18.2735C38.8156 18.713 39.0625 19.3092 39.0625 19.9308V41.0245H36.7188C36.5693 41.0241 36.4229 41.0666 36.2969 41.1469C36.1709 41.2272 36.0706 41.342 36.0078 41.4776C35.9446 41.6152 35.9228 41.7683 35.945 41.9181C35.9672 42.0679 36.0325 42.208 36.1328 42.3214L41.6016 48.5714C41.6749 48.6545 41.765 48.7211 41.8661 48.7667C41.9671 48.8123 42.0767 48.8359 42.1875 48.8359C42.2983 48.8359 42.4079 48.8123 42.5089 48.7667C42.61 48.7211 42.7001 48.6545 42.7734 48.5714L48.2422 42.3214C48.3426 42.208 48.4078 42.0679 48.43 41.9181C48.4522 41.7683 48.4304 41.6152 48.3672 41.4776C48.3044 41.342 48.2041 41.2272 48.0781 41.1469C47.9521 41.0666 47.8057 41.0241 47.6563 41.0245H45.3125V19.9308C45.3125 17.6516 44.4071 15.4657 42.7955 13.8541C41.1838 12.2424 38.998 11.337 36.7188 11.337H15.625V12.8995H36.7188C38.5836 12.8995 40.372 13.6403 41.6906 14.9589C43.0092 16.2775 43.75 18.066 43.75 19.9308V41.8057C43.75 42.0129 43.8323 42.2117 43.9788 42.3582C44.1253 42.5047 44.3241 42.587 44.5313 42.587H45.9375L42.1875 46.8682L38.4375 42.587H39.8438C40.051 42.587 40.2497 42.5047 40.3962 42.3582C40.5427 42.2117 40.625 42.0129 40.625 41.8057V19.9308C40.625 18.8948 40.2135 17.9012 39.4809 17.1686C38.7483 16.4361 37.7548 16.0245 36.7188 16.0245H33.2422C30.8467 13.8984 27.7241 12.777 24.5232 12.8934C21.3224 13.0098 18.2895 14.355 16.0547 16.6495L17.1875 17.7354C18.2013 16.6906 19.4161 15.8619 20.7588 15.2993C22.1015 14.7367 23.5442 14.4519 25 14.462C27.0723 14.4645 29.1013 15.0557 30.8506 16.1667C32.6 17.2778 33.9977 18.8629 34.881 20.7376C35.7643 22.6122 36.0968 24.6992 35.8399 26.7556C35.583 28.8119 34.7471 30.7529 33.4297 32.3526C33.1483 30.901 32.4971 29.5465 31.5391 28.4201C30.5811 27.2937 29.3486 26.4336 27.9609 25.9229C28.7191 25.316 29.2699 24.4885 29.5374 23.5549C29.8049 22.6213 29.7759 21.6277 29.4542 20.7113C29.1326 19.7949 28.5342 19.0011 27.7419 18.4395C26.9496 17.8779 26.0024 17.5763 25.0313 17.5763C24.0601 17.5763 23.1129 17.8779 22.3206 18.4395C21.5283 19.0011 20.9299 19.7949 20.6083 20.7113C20.2867 21.6277 20.2576 22.6213 20.5251 23.5549C20.7926 24.4885 21.3435 25.316 22.1016 25.9229C20.7139 26.4336 19.4814 27.2937 18.5234 28.4201C17.5654 29.5465 16.9142 30.901 16.6328 32.3526C15.2297 30.6539 14.3724 28.5711 14.173 26.3769C13.9737 24.1827 14.4417 21.9795 15.5156 20.0558L14.1563 19.2745C12.925 21.4414 12.3718 23.9278 12.5682 26.4123C12.7646 28.8968 13.7015 31.2654 15.2578 33.212H13.2813C12.6597 33.212 12.0635 32.9651 11.624 32.5255C11.1844 32.086 10.9375 31.4899 10.9375 30.8682V9.77451H13.2813C13.4314 9.77432 13.5783 9.73087 13.7044 9.64936C13.8305 9.56786 13.9304 9.45175 13.9922 9.31493C14.054 9.1781 14.0751 9.02637 14.0529 8.87788C14.0308 8.72938 13.9663 8.59043 13.8672 8.47763L8.39844 2.21982ZM21.875 22.2745C21.875 21.6564 22.0583 21.0522 22.4017 20.5383C22.745 20.0244 23.2331 19.6239 23.8041 19.3874C24.3751 19.1509 25.0035 19.089 25.6097 19.2095C26.2159 19.3301 26.7727 19.6278 27.2097 20.0648C27.6468 20.5018 27.9444 21.0587 28.065 21.6648C28.1855 22.271 28.1237 22.8994 27.8871 23.4704C27.6506 24.0414 27.2501 24.5295 26.7362 24.8728C26.2223 25.2162 25.6181 25.3995 25 25.3995C24.1712 25.3995 23.3763 25.0703 22.7903 24.4842C22.2042 23.8982 21.875 23.1033 21.875 22.2745ZM25 26.962C26.8288 26.9612 28.586 27.6729 29.8987 28.9463C31.2114 30.2196 31.9764 31.9543 32.0313 33.7823C30.0613 35.4356 27.5718 36.3418 25 36.3418C22.4282 36.3418 19.9387 35.4356 17.9688 33.7823C18.0236 31.9543 18.7886 30.2196 20.1013 28.9463C21.414 27.6729 23.1712 26.9612 25 26.962Z" fill="#48FFA4"/>
<path d="M12.5 11.3291H14.0625V12.8916H12.5V11.3291Z" fill="#48FFA4"/>
<path d="M35.9375 37.8994H37.5V39.4619H35.9375V37.8994Z" fill="#48FFA4"/>
</svg>
