<svg width="50" height="51" viewBox="0 0 50 51" fill="none" xmlns="http://www.w3.org/2000/svg">
<g clip-path="url(#clip0_20_337)">
<path d="M19.5094 50.39C15.7906 50.39 8.74271 43.466 7.84271 42.5618C6.80104 41.5202 -2.27708 32.2764 0.561459 29.4368L18.7604 11.2327L20.2333 12.7056L2.08333 30.8587C1.91458 31.791 4.13021 35.9045 9.3125 41.0889C14.4948 46.2733 18.6219 48.4847 19.5427 48.317L32.7792 35.0795L34.2521 36.5525L20.9615 49.8431C20.7692 50.028 20.5413 50.1718 20.2917 50.2659C20.042 50.3599 19.7759 50.4021 19.5094 50.39Z" fill="#43AAFD"/>
<path d="M34.8552 32.9963L36.9383 30.9133L38.4114 32.3865L36.3284 34.4695L34.8552 32.9963Z" fill="#43AAFD"/>
<path d="M32.8021 24.011C31.8375 22.9308 30.7885 21.8235 29.6823 20.7162C27.0468 17.9295 24.0953 15.4596 20.8875 13.3568C21.0448 13.636 21.2573 13.9818 21.5427 14.3985L19.8188 15.5693C18.6854 13.9026 17.7729 12.2224 18.7594 11.2349C19.5813 10.4172 22.275 10.3641 31.1552 19.2433C32.2896 20.3776 33.3656 21.5141 34.3563 22.6214L32.8021 24.011Z" fill="#43AAFD"/>
<path d="M20.5938 16.6494C20.3097 16.2702 20.0517 15.9101 19.8198 15.5692L21.5417 14.3962C21.7573 14.7087 21.9979 15.0483 22.2615 15.4025L20.5938 16.6494Z" fill="#43AAFD"/>
<path d="M36.4052 31.5359C34.2177 30.413 30.525 27.3838 26.7698 23.6297C26.2038 23.063 25.6587 22.5029 25.1344 21.9494L26.6458 20.5161C27.1573 21.0567 27.6875 21.6036 28.2427 22.1567C31.8 25.713 35.3771 28.6672 37.3552 29.6817L36.4052 31.5359Z" fill="#43AAFD"/>
<path d="M23.9583 29.5662C23.3403 29.5662 22.7361 29.3829 22.2222 29.0395C21.7083 28.6961 21.3077 28.2081 21.0712 27.637C20.8347 27.066 20.7728 26.4377 20.8934 25.8315C21.014 25.2253 21.3116 24.6685 21.7486 24.2315C22.1857 23.7944 22.7425 23.4968 23.3487 23.3762C23.9549 23.2556 24.5832 23.3175 25.1542 23.554C25.7252 23.7906 26.2133 24.1911 26.5567 24.705C26.9001 25.2189 27.0833 25.8231 27.0833 26.4412C27.0833 27.27 26.7541 28.0648 26.168 28.6509C25.582 29.2369 24.7871 29.5662 23.9583 29.5662ZM23.9583 25.3995C23.7523 25.3995 23.5509 25.4606 23.3796 25.575C23.2083 25.6895 23.0748 25.8522 22.996 26.0425C22.9171 26.2329 22.8965 26.4423 22.9367 26.6444C22.9769 26.8464 23.0761 27.0321 23.2218 27.1777C23.3674 27.3234 23.553 27.4226 23.7551 27.4628C23.9572 27.503 24.1666 27.4824 24.357 27.4035C24.5473 27.3247 24.71 27.1912 24.8244 27.0199C24.9389 26.8486 25 26.6472 25 26.4412C25 26.1649 24.8903 25.8999 24.6949 25.7046C24.4995 25.5092 24.2346 25.3995 23.9583 25.3995Z" fill="#43AAFD"/>
<path d="M8.33333 18.1077H10.4167V22.2743H8.33333V18.1077Z" fill="#43AAFD"/>
<path d="M8.33333 13.9412H10.4167V16.0255H8.33333V13.9412Z" fill="#43AAFD"/>
<path d="M25 24.3577H22.9167V7.69108C22.9167 4.81921 20.1135 2.48275 16.6667 2.48275C13.2198 2.48275 10.4167 4.81921 10.4167 7.69108V11.8577H8.33333V7.69108C8.33333 3.67025 12.0719 0.399414 16.6667 0.399414C21.2615 0.399414 25 3.67025 25 7.69108V24.3577Z" fill="#43AAFD"/>
<path d="M39.5833 36.8578H37.5V32.6912C37.5 32.4149 37.3903 32.1499 37.1949 31.9546C36.9996 31.7592 36.7346 31.6495 36.4583 31.6495V29.5662C37.2871 29.5662 38.082 29.8954 38.6681 30.4815C39.2541 31.0675 39.5833 31.8624 39.5833 32.6912V36.8578Z" fill="#43AAFD"/>
<path d="M37.5 38.9412H39.5833V41.0245H37.5V38.9412Z" fill="#43AAFD"/>
<path d="M41.6667 50.3994C40.5616 50.3994 39.5018 49.9604 38.7204 49.179C37.939 48.3976 37.5 47.3378 37.5 46.2327V43.1077H39.5833V46.2327C39.5833 46.7853 39.8028 47.3152 40.1935 47.7059C40.5842 48.0966 41.1141 48.3161 41.6667 48.3161C42.2192 48.3161 42.7491 48.0966 43.1398 47.7059C43.5305 47.3152 43.75 46.7853 43.75 46.2327V36.8577C43.75 36.5815 43.8597 36.3165 44.0551 36.1212C44.2504 35.9258 44.5154 35.8161 44.7917 35.8161C45.0679 35.8161 45.3329 35.9258 45.5282 36.1212C45.7236 36.3165 45.8333 36.5815 45.8333 36.8577V39.9827C45.8333 40.259 45.9431 40.524 46.1384 40.7193C46.3338 40.9147 46.5987 41.0244 46.875 41.0244C47.1513 41.0244 47.4162 40.9147 47.6116 40.7193C47.8069 40.524 47.9167 40.259 47.9167 39.9827V37.8994C47.9125 34.3092 46.4845 30.8672 43.9458 28.3286C41.4072 25.7899 37.9652 24.3619 34.375 24.3577H28.125V22.2744H34.375C38.5176 22.2791 42.4891 23.9268 45.4184 26.856C48.3476 29.7853 49.9953 33.7568 50 37.8994V39.9827C50.0001 40.4827 49.8802 40.9755 49.6504 41.4195C49.4207 41.8636 49.0877 42.246 48.6795 42.5347C48.2712 42.8234 47.7997 43.01 47.3045 43.0787C46.8092 43.1474 46.3047 43.0963 45.8333 42.9296V46.2327C45.8333 47.3378 45.3943 48.3976 44.6129 49.179C43.8315 49.9604 42.7717 50.3994 41.6667 50.3994Z" fill="#43AAFD"/>
</g>
<defs>
<clipPath id="clip0_20_337">
<rect width="50" height="50" fill="white" transform="translate(0 0.399414)"/>
</clipPath>
</defs>
</svg>
