<svg width="54" height="48" viewBox="0 0 54 48" fill="none" xmlns="http://www.w3.org/2000/svg">
<path d="M50.551 40.4582H50.2171V14.8964C50.2171 13.8747 49.3942 13.0434 48.3827 13.0434H47.2119C48.603 11.504 49.9142 9.89072 51.1344 8.20917L51.6566 8.59994C52.067 8.90712 52.6072 8.95798 53.0667 8.73247C53.5261 8.50718 53.8207 8.04668 53.8355 7.53105L53.9994 1.81927C54.0123 1.36836 53.8057 0.938779 53.4469 0.670303C53.088 0.401828 52.6212 0.327618 52.198 0.471452L46.837 2.29385C46.353 2.45826 46.0028 2.87697 45.9231 3.38652C45.8434 3.89607 46.0488 4.40348 46.4593 4.71077L47.3174 5.35285C46.5427 6.42143 45.7216 7.47059 44.8702 8.47967C44.5865 8.81575 44.6264 9.3205 44.959 9.60699C45.2916 9.89338 45.7913 9.85329 46.075 9.51711C47.1249 8.27293 48.13 6.96947 49.0622 5.64308C49.3116 5.28803 49.2341 4.79671 48.8879 4.53762L47.7359 3.67557L52.4077 2.08753L52.2648 7.06479L51.4329 6.44222C51.2621 6.31438 51.0475 6.26085 50.8376 6.29497C50.6277 6.32856 50.4399 6.44616 50.3166 6.62113C45.1236 13.9935 38.1704 20.0837 30.2087 24.2339C22.2409 28.3872 13.2905 30.5824 4.32519 30.5824H2.37485C1.9383 30.5824 1.58324 30.2238 1.58324 29.7828C1.58324 29.3418 1.9383 28.9831 2.37485 28.9831H4.3254C11.7577 28.9831 18.9922 27.4912 25.8278 24.5488C32.6115 21.6287 38.6478 17.4347 43.7691 12.0835C44.073 11.7659 44.0645 11.2598 43.7502 10.9528C43.4358 10.6458 42.9346 10.6545 42.6308 10.972C40.6465 13.0455 38.5201 14.9394 36.2632 16.6479C36.2594 16.6479 36.2558 16.6474 36.252 16.6474H29.9364C28.9249 16.6474 28.102 17.4786 28.102 18.5003V21.7276C27.3957 22.0828 26.6802 22.4229 25.9556 22.7479V21.6128C25.9556 20.5911 25.1327 19.7598 24.1213 19.7598H17.8057C16.7942 19.7598 15.9715 20.5911 15.9715 21.6128V26.0873C15.259 26.2487 14.5435 26.3954 13.8249 26.5267V24.1496C13.8249 23.1278 13.0021 22.2966 11.9907 22.2966H5.67485C4.66337 22.2966 3.84061 23.1278 3.84061 24.1496V27.3838H2.37485C1.06531 27.3838 0 28.46 0 29.7828C0 31.1055 1.06531 32.1818 2.37485 32.1818H3.84051V40.4582H3.41451C1.57131 40.4582 0.0717734 41.973 0.0717734 43.8348V46.0261C0.0717734 46.7833 0.681636 47.3994 1.43125 47.3994H52.5343C53.2839 47.3994 53.8938 46.7833 53.8938 46.0261V43.8348C53.8938 41.973 52.3941 40.4582 50.551 40.4582ZM29.6853 18.5002C29.6853 18.3603 29.7979 18.2466 29.9364 18.2466H34.0335C32.6294 19.1988 31.179 20.0826 29.6853 20.8976V18.5002ZM17.5545 21.6128C17.5545 21.4729 17.6671 21.3592 17.8055 21.3592H24.1211C24.2596 21.3592 24.3721 21.4729 24.3721 21.6128V23.4275C22.1396 24.3445 19.8647 25.1043 17.5544 25.7037V21.6128H17.5545ZM5.67485 23.8959H11.9905C12.129 23.8959 12.2415 24.0097 12.2415 24.1496V26.7912C9.9937 27.131 7.71891 27.3246 5.42374 27.3715V24.1495C5.42374 24.0097 5.53637 23.8959 5.67485 23.8959ZM45.7133 14.6428H48.3827C48.5212 14.6428 48.6338 14.7565 48.6338 14.8964V40.4582H41.816V18.2942C43.1687 17.1371 44.4702 15.9191 45.7133 14.6428ZM30.9348 25.6552C32.8513 24.6563 34.7101 23.547 36.503 22.3379V30.8538C36.503 31.2955 36.8574 31.6535 37.2946 31.6535C37.7318 31.6535 38.0862 31.2955 38.0862 30.8538V21.233C38.8142 20.7062 39.5295 20.1617 40.2327 19.6016V40.4582H38.0863V34.2638C38.0863 33.8221 37.7319 33.4641 37.2947 33.4641C36.8575 33.4641 36.5031 33.8221 36.5031 34.2638V40.4582H29.6853V26.2854C30.1041 26.08 30.5211 25.8709 30.9348 25.6552ZM17.5545 30.6288C19.8657 30.0819 22.1439 29.3932 24.3722 28.5664V40.4582H17.5545V30.6288ZM25.9556 27.9523C26.6771 27.6601 27.3927 27.3534 28.102 27.032V40.4582H25.9556V27.9523ZM5.42374 32.1698C7.70477 32.1255 9.9823 31.9438 12.2415 31.6278V34.2783C12.2415 34.7201 12.5959 35.078 13.0331 35.078C13.4703 35.078 13.8247 34.7201 13.8247 34.2783V31.3846C14.5428 31.2638 15.2582 31.1281 15.9713 30.9803V40.4582H13.8247V37.6884C13.8247 37.2467 13.4703 36.8888 13.0331 36.8888C12.5959 36.8888 12.2415 37.2467 12.2415 37.6884V40.4582H5.42374V32.1698ZM52.3105 45.8001H1.65501V43.8348C1.65501 42.8548 2.44431 42.0575 3.41451 42.0575H50.551C51.5212 42.0575 52.3105 42.8548 52.3105 43.8348V45.8001Z" fill="#FF864F"/>
</svg>
