<svg width="50" height="51" viewBox="0 0 50 51" fill="none" xmlns="http://www.w3.org/2000/svg">
<g clip-path="url(#clip0_20_529)">
<path d="M33.3939 32.4655C32.2092 32.4655 31.2455 31.6313 31.2455 30.606C31.2455 29.5807 32.2092 28.7465 33.3939 28.7465C34.5786 28.7465 35.5423 29.5807 35.5423 30.606C35.5423 31.1453 35.9797 31.5826 36.5189 31.5826C37.0582 31.5826 37.4955 31.1453 37.4955 30.606C37.4955 28.8165 36.1621 27.3118 34.3705 26.9034V26.3955C34.3705 25.8562 33.9332 25.4189 33.3939 25.4189C32.8547 25.4189 32.4174 25.8562 32.4174 26.3955V26.9034C30.6258 27.3118 29.2924 28.8165 29.2924 30.606C29.2924 32.7083 31.1323 34.4186 33.3939 34.4186C34.5786 34.4186 35.5423 35.2528 35.5423 36.2782C35.5423 37.3036 34.5786 38.1378 33.3939 38.1378C32.2092 38.1378 31.2455 37.3036 31.2455 36.2782C31.2455 35.7389 30.8082 35.3016 30.2689 35.3016C29.7297 35.3016 29.2924 35.7389 29.2924 36.2782C29.2924 38.0677 30.6258 39.5724 32.4174 39.9808V40.4027C32.4174 40.942 32.8547 41.3793 33.3939 41.3793C33.9332 41.3793 34.3705 40.942 34.3705 40.4027V39.9808C36.1621 39.5724 37.4955 38.0677 37.4955 36.2782C37.4955 34.1759 35.6555 32.4655 33.3939 32.4655Z" fill="#E65CFF"/>
<path d="M44.09 26.6568C42.8143 24.6691 41.017 23.0784 38.8925 22.0571C38.4063 21.8234 37.8228 22.028 37.5892 22.5142C37.3555 23.0003 37.5601 23.5837 38.0462 23.8174C41.7485 25.5971 44.1406 29.3997 44.1406 33.505C44.1406 35.2616 43.7076 37.0037 42.8885 38.5432C42.6352 39.0192 42.8158 39.6106 43.2919 39.864C43.438 39.9417 43.5951 39.9786 43.7497 39.9786C44.0992 39.9786 44.4371 39.7905 44.6127 39.4605C45.5816 37.6398 46.0937 35.5804 46.0937 33.505C46.0937 31.0675 45.4008 28.6994 44.09 26.6568Z" fill="#E65CFF"/>
<path d="M34.9289 20.8097L34.8632 20.8096C34.324 20.8096 33.8867 21.2468 33.8867 21.7861C33.8867 22.3255 34.324 22.7627 34.8632 22.7627L34.9198 22.7628C34.9213 22.7628 34.9228 22.7628 34.9245 22.7628C35.4617 22.7628 35.8984 22.3286 35.9009 21.7908C35.9034 21.2515 35.4682 20.8122 34.9289 20.8097Z" fill="#E65CFF"/>
<path d="M28.7507 43.1924C25.0485 41.4126 22.6564 37.61 22.6564 33.5049C22.6564 31.7482 23.0894 30.0061 23.9085 28.4667C24.1618 27.9906 23.9812 27.3992 23.5051 27.1459C23.0291 26.8926 22.4375 27.0731 22.1843 27.5493C21.2154 29.3701 20.7033 31.4295 20.7033 33.5049C20.7033 35.9423 21.3962 38.3103 22.707 40.353C23.9827 42.3408 25.78 43.9314 27.9045 44.9528C28.0409 45.0184 28.185 45.0494 28.3269 45.0494C28.6906 45.0494 29.0396 44.8454 29.2078 44.4957C29.4413 44.0096 29.2368 43.4261 28.7507 43.1924Z" fill="#E65CFF"/>
<path d="M31.9338 44.247L31.8772 44.2468C31.3354 44.2459 30.8987 44.6793 30.8963 45.2188C30.8937 45.7582 31.3291 46.1974 31.8683 46.1999L31.9338 46.2001C32.473 46.2001 32.9103 45.7628 32.9103 45.2236C32.9103 44.6843 32.473 44.247 31.9338 44.247Z" fill="#E65CFF"/>
<path d="M37.8328 17.5056C37.714 17.2224 37.5684 16.9555 37.399 16.708H39.9413C42.4183 16.708 44.4335 14.6927 44.4335 12.2158C44.4335 9.73885 42.4183 7.72362 39.9413 7.72362H32.121C32.6182 7.00077 32.9101 6.12626 32.9101 5.18456C32.9101 2.70761 30.8949 0.692383 28.4179 0.692383H4.49218C2.01523 0.692383 0 2.70761 0 5.18456C0 7.66151 2.01523 9.67674 4.49218 9.67674H12.3125C11.8153 10.3996 11.5234 11.2741 11.5234 12.2158C11.5234 13.1575 11.8152 14.032 12.3125 14.7549H9.76561C7.28866 14.7549 5.27343 16.7701 5.27343 19.247C5.27343 20.6696 5.93886 21.939 6.97411 22.7627C5.93886 23.5863 5.27343 24.8557 5.27343 26.2783C5.27343 27.7008 5.93886 28.9703 6.97411 29.7939C5.93886 30.6175 5.27343 31.887 5.27343 33.3095C5.27343 34.7321 5.93886 36.0015 6.97411 36.8251C5.93886 37.6488 5.27343 38.9182 5.27343 40.3407C5.27343 42.8177 7.28866 44.8329 9.76561 44.8329H21.2744C24.3062 48.0758 28.6193 50.1064 33.3985 50.1064C42.5526 50.1064 50 42.659 50 33.5049C50 25.8861 44.8408 19.4505 37.8328 17.5056ZM39.9413 9.67674C41.3414 9.67674 42.4804 10.8158 42.4804 12.2158C42.4804 13.6158 41.3414 14.7549 39.9413 14.7549H33.6913H16.0156C14.6155 14.7549 13.4765 13.6158 13.4765 12.2158C13.4765 10.8158 14.6155 9.67674 16.0156 9.67674H39.9413ZM4.49218 7.72362C3.09208 7.72362 1.95312 6.58456 1.95312 5.18456C1.95312 3.78456 3.09208 2.6455 4.49218 2.6455H28.4179C29.818 2.6455 30.957 3.78456 30.957 5.18456C30.957 6.58456 29.818 7.72362 28.4179 7.72362H4.49218ZM9.76561 16.708H33.6913C34.0847 16.708 34.4614 16.7994 34.7993 16.9631C34.3373 16.9243 33.8703 16.9034 33.3985 16.9034C28.814 16.9034 24.6578 18.7715 21.6505 21.7861H9.76561C8.36561 21.7861 7.22655 20.647 7.22655 19.247C7.22655 17.847 8.36561 16.708 9.76561 16.708ZM9.76561 23.7392H19.9819C18.8733 25.2581 18.0162 26.9711 17.4718 28.8173H9.76561C8.36551 28.8173 7.22655 27.6784 7.22655 26.2783C7.22655 24.8783 8.36551 23.7392 9.76561 23.7392ZM9.76561 30.7705H17.0234C16.8753 31.6604 16.7969 32.5736 16.7969 33.5049C16.7969 34.3004 16.8545 35.0826 16.9632 35.8486H9.76561C8.36551 35.8486 7.22655 34.7096 7.22655 33.3095C7.22655 31.9094 8.36551 30.7705 9.76561 30.7705ZM9.76561 42.8798C8.36551 42.8798 7.22655 41.7408 7.22655 40.3407C7.22655 38.9407 8.36551 37.8017 9.76561 37.8017H17.3619C17.8547 39.6389 18.6551 41.3511 19.7049 42.8798H9.76561ZM33.3985 48.1533C25.3213 48.1533 18.7501 41.5821 18.7501 33.5049C18.7501 25.4278 25.3213 18.8565 33.3985 18.8565C41.4756 18.8565 48.0469 25.4278 48.0469 33.5049C48.0469 41.5821 41.4756 48.1533 33.3985 48.1533Z" fill="#E65CFF"/>
</g>
<defs>
<clipPath id="clip0_20_529">
<rect width="50" height="50" fill="white" transform="translate(0 0.399414)"/>
</clipPath>
</defs>
</svg>
