<svg width="62" height="62" viewBox="0 0 62 62" fill="none" xmlns="http://www.w3.org/2000/svg">
<path fill-rule="evenodd" clip-rule="evenodd" d="M28.4167 10.3334C24.1365 10.3334 20.6667 13.8032 20.6667 18.0834C20.6667 22.3636 24.1365 25.8334 28.4167 25.8334C32.697 25.8334 36.1667 22.3636 36.1667 18.0834C36.1667 13.8032 32.697 10.3334 28.4167 10.3334ZM15.5 18.0834C15.5 10.9497 21.283 5.16669 28.4167 5.16669C35.5503 5.16669 41.3333 10.9497 41.3333 18.0834C41.3333 25.217 35.5503 31 28.4167 31C21.283 31 15.5 25.217 15.5 18.0834ZM19.6107 33.594C20.1774 33.5418 20.765 33.6758 21.2758 34.0156C23.3201 35.3746 25.7719 36.1667 28.4164 36.1667C31.061 36.1667 33.5128 35.3746 35.557 34.0156C36.068 33.6758 36.6557 33.5418 37.2225 33.594C37.3002 33.587 37.3788 33.5834 37.4583 33.5834H38.75C40.6278 33.5834 42.3961 34.0866 43.9185 34.9673C45.1536 35.6818 45.5757 37.262 44.8611 38.4971C44.1469 39.732 42.5664 40.1541 41.3315 39.4398C40.5741 39.0016 39.6955 38.75 38.75 38.75H37.7353C35.0124 40.3899 31.8212 41.3334 28.4164 41.3334C25.0117 41.3334 21.8205 40.3899 19.0977 38.75H18.0834C15.2299 38.75 12.9167 41.0631 12.9167 43.9167V50.1167C12.9167 50.8827 12.9187 51.3019 12.9433 51.6032C12.9443 51.615 12.9453 51.6264 12.9463 51.637C12.957 51.638 12.9683 51.6391 12.9803 51.6401C13.2815 51.6646 13.7007 51.6667 14.4667 51.6667H25.8333C27.2601 51.6667 28.4167 52.8233 28.4167 54.25C28.4167 55.6768 27.2601 56.8334 25.8333 56.8334H14.3842C13.7323 56.8334 13.0973 56.8336 12.5596 56.7897C11.9691 56.7414 11.2723 56.6275 10.5711 56.2702C9.5989 55.775 8.8085 54.9845 8.31315 54.0124C7.95587 53.3113 7.84205 52.6143 7.79379 52.0237C7.74985 51.4861 7.74993 50.8511 7.75001 50.1991L7.75003 43.9167C7.75003 38.2099 12.3764 33.5834 18.0834 33.5834H19.375C19.4545 33.5834 19.5331 33.587 19.6107 33.594ZM53.5373 42.135C54.5213 43.1683 54.4815 44.8036 53.4484 45.7873L42.5984 56.1206C41.6007 57.071 40.0329 57.071 39.0349 56.1206L34.3849 51.6923C33.3519 50.7083 33.3121 49.073 34.2961 48.04C35.2801 47.0066 36.9151 46.9668 37.9484 47.9508L40.8167 50.6824L49.8852 42.0461C50.9183 41.0621 52.5535 41.1019 53.5373 42.135Z" fill="#D653DE"/>
</svg>
