<svg width="55" height="55" viewBox="0 0 55 55" fill="none" xmlns="http://www.w3.org/2000/svg">
<g clip-path="url(#clip0_19_236)">
<path d="M2.75 55H52.25C52.9793 55 53.6788 54.7103 54.1945 54.1945C54.7103 53.6788 55 52.9793 55 52.25C55 45.8526 53.8083 35.9535 53.7983 35.8417C53.6258 34.5801 53.0847 33.3975 52.243 32.4421C51.4012 31.4867 50.2962 30.801 49.0664 30.4709C49.9431 29.3227 50.4176 27.9179 50.4167 26.4733V24.86C50.4291 23.1442 49.7606 21.4936 48.5577 20.27C47.3548 19.0465 45.7157 18.35 44 18.3333C43.1527 18.3325 42.3139 18.5018 41.5333 18.8314C40.7528 19.161 40.0464 19.6441 39.4561 20.2519C38.2525 21.4834 37.5801 23.138 37.5833 24.86V26.4733C37.5805 28.1969 38.2539 29.8527 39.4588 31.0851C40.3473 31.9968 41.4894 32.6203 42.7368 32.8744C42.4835 33.2787 42.2836 33.7141 42.1419 34.1697L41.8119 35.2697C41.5675 34.859 41.221 34.5186 40.8061 34.2815C40.3912 34.0444 39.922 33.9187 39.4442 33.9167H15.5558C15.078 33.9192 14.6089 34.0452 14.1941 34.2826C13.7794 34.52 13.4331 34.8607 13.189 35.2715L12.8581 34.1715C12.7168 33.7158 12.5168 33.2804 12.2632 32.8762C13.512 32.6216 14.6552 31.9968 15.5439 31.0832C16.7479 29.8512 17.4204 28.1959 17.4167 26.4733V24.86C17.4195 23.1364 16.7461 21.4806 15.5412 20.2482C14.9509 19.6414 14.2448 19.1592 13.4648 18.8303C12.6847 18.5013 11.8466 18.3324 11 18.3333C9.28428 18.35 7.64522 19.0465 6.44231 20.27C5.23941 21.4936 4.57087 23.1442 4.58333 24.86V26.4733C4.58217 27.9183 5.05667 29.3234 5.93358 30.4718C4.70235 30.8032 3.59635 31.4907 2.75425 32.448C1.91215 33.4054 1.37144 34.5901 1.19992 35.8536C1.19167 35.9535 0 45.8526 0 52.25C0 52.9793 0.289731 53.6788 0.805456 54.1945C1.32118 54.7103 2.02065 55 2.75 55ZM8.25 52.25V50.325C8.45885 50.384 8.67465 50.4148 8.89167 50.4167H46.1083C46.3254 50.4148 46.5412 50.384 46.75 50.325V52.25C46.75 52.4931 46.6534 52.7263 46.4815 52.8982C46.3096 53.0701 46.0765 53.1667 45.8333 53.1667H9.16667C8.92355 53.1667 8.69039 53.0701 8.51849 52.8982C8.34658 52.7263 8.25 52.4931 8.25 52.25ZM51.9796 36.0745C51.9924 36.1717 53.1667 45.9635 53.1667 52.25C53.1667 52.4931 53.0701 52.7263 52.8982 52.8982C52.7263 53.0701 52.4931 53.1667 52.25 53.1667H48.4147C48.5232 52.8731 48.5803 52.563 48.5833 52.25V47.9417C48.5827 47.5176 48.4729 47.1009 48.2643 46.7317L45.9727 42.6461L47.5952 38.8612C47.6869 38.6385 47.6873 38.3886 47.5963 38.1656C47.5053 37.9426 47.3302 37.7644 47.1088 37.6695C46.8874 37.5746 46.6376 37.5706 46.4133 37.6584C46.1891 37.7463 46.0084 37.9188 45.9103 38.1388L44.11 42.3335C43.8979 42.8282 43.5453 43.2498 43.0959 43.546C42.6465 43.8423 42.1201 44.0001 41.5818 44H36.2083C35.8437 44 35.4939 43.8551 35.2361 43.5973C34.9782 43.3394 34.8333 42.9897 34.8333 42.625C34.8333 42.2603 34.9782 41.9106 35.2361 41.6527C35.4939 41.3949 35.8437 41.25 36.2083 41.25H39.886C40.4782 41.2528 41.0552 41.0632 41.5303 40.7097C42.0054 40.3563 42.3529 39.8581 42.5205 39.2902L43.8955 34.6967C44.1187 33.939 44.5822 33.2743 45.2161 32.8029C45.8501 32.3315 46.62 32.079 47.41 32.0833C48.5248 32.0861 49.6011 32.4914 50.4408 33.2248C51.2804 33.9582 51.8269 34.9702 51.9796 36.0745ZM39.4167 26.4733V24.86C39.4137 23.6169 39.8989 22.4223 40.7678 21.5334C41.1875 21.1006 41.6899 20.7565 42.2451 20.5217C42.8004 20.287 43.3971 20.1662 44 20.1667C45.2296 20.1828 46.4027 20.686 47.2619 21.5658C48.1211 22.4457 48.5963 23.6303 48.5833 24.86V26.4733C48.5872 27.2227 48.4118 27.9621 48.0718 28.6299C47.7319 29.2977 47.2372 29.8745 46.629 30.3123C45.8463 30.4247 45.0974 30.7063 44.4345 31.1373C44.2903 31.1548 44.1453 31.1646 44 31.1667C43.3979 31.1672 42.8018 31.0468 42.2471 30.8126C41.6923 30.5785 41.1902 30.2354 40.7706 29.8036C39.9003 28.9138 39.4142 27.7179 39.4167 26.4733ZM14.7473 36.2239C14.8274 36.0799 14.9447 35.9599 15.0869 35.8766C15.2291 35.7932 15.391 35.7495 15.5558 35.75H39.4442C39.6081 35.7489 39.7693 35.7918 39.911 35.8742C40.0527 35.9565 40.1698 36.0754 40.2499 36.2184L41.0832 37.6979L40.7642 38.7631C40.7076 38.952 40.5916 39.1176 40.4334 39.2353C40.2752 39.3531 40.0832 39.4167 39.886 39.4167H36.2083C35.3574 39.4167 34.5414 39.7547 33.9397 40.3564C33.338 40.958 33 41.7741 33 42.625C33 43.4759 33.338 44.2919 33.9397 44.8936C34.5414 45.4953 35.3574 45.8333 36.2083 45.8333H41.5818C42.1959 45.8322 42.8034 45.7072 43.368 45.466C43.9327 45.2247 44.4429 44.872 44.8681 44.429L46.6629 47.6254C46.7191 47.7214 46.7491 47.8304 46.75 47.9417C46.75 48.0259 46.7334 48.1094 46.7012 48.1872C46.6689 48.2651 46.6216 48.3358 46.5621 48.3954C46.5025 48.455 46.4317 48.5022 46.3539 48.5345C46.276 48.5667 46.1926 48.5833 46.1083 48.5833H8.89167C8.8074 48.5833 8.72396 48.5667 8.64611 48.5345C8.56826 48.5022 8.49752 48.455 8.43794 48.3954C8.37836 48.3358 8.33109 48.2651 8.29884 48.1872C8.2666 48.1094 8.25 48.0259 8.25 47.9417C8.25063 47.8322 8.27969 47.7248 8.33433 47.63L10.1319 44.429C10.5571 44.872 11.0673 45.2247 11.632 45.466C12.1966 45.7072 12.8041 45.8322 13.4182 45.8333H18.7917C19.6426 45.8333 20.4586 45.4953 21.0603 44.8936C21.662 44.2919 22 43.4759 22 42.625C22 41.7741 21.662 40.958 21.0603 40.3564C20.4586 39.7547 19.6426 39.4167 18.7917 39.4167H15.114C14.9169 39.4167 14.725 39.3533 14.5669 39.2357C14.4087 39.1181 14.2926 38.9527 14.2358 38.764L13.9168 37.6988L14.7473 36.2239ZM6.41667 24.86C6.4037 23.6303 6.87892 22.4457 7.73811 21.5658C8.59731 20.686 9.77035 20.1828 11 20.1667C11.6021 20.1661 12.1982 20.2865 12.753 20.5207C13.3077 20.7548 13.8098 21.0979 14.2294 21.5297C15.0997 22.4195 15.5858 23.6154 15.5833 24.86V26.4733C15.5863 27.7164 15.1011 28.911 14.2322 29.7999C13.8125 30.2327 13.3102 30.5768 12.7549 30.8116C12.1996 31.0463 11.6029 31.1671 11 31.1667C10.855 31.1637 10.7103 31.153 10.5664 31.1346C9.90308 30.7036 9.15396 30.4221 8.371 30.3096C7.76321 29.872 7.26876 29.2956 6.92881 28.6283C6.58887 27.9611 6.41328 27.2222 6.41667 26.4733V24.86ZM3.01858 36.0855C3.16962 34.9792 3.71552 33.9648 4.55563 33.2293C5.39574 32.4938 6.47343 32.0868 7.59 32.0833C8.37949 32.0796 9.14884 32.3324 9.7822 32.8037C10.4156 33.2751 10.8787 33.9394 11.1018 34.6967L12.4768 39.2902C12.6445 39.8586 12.9924 40.3571 13.468 40.7105C13.9437 41.064 14.5214 41.2533 15.114 41.25H18.7917C19.1563 41.25 19.5061 41.3949 19.7639 41.6527C20.0218 41.9106 20.1667 42.2603 20.1667 42.625C20.1667 42.9897 20.0218 43.3394 19.7639 43.5973C19.5061 43.8551 19.1563 44 18.7917 44H13.4182C12.8799 44.0001 12.3535 43.8423 11.9041 43.546C11.4547 43.2498 11.1021 42.8282 10.89 42.3335L9.09242 38.1388C9.04615 38.0265 8.97801 37.9245 8.89197 37.8387C8.80593 37.753 8.70371 37.6852 8.59124 37.6393C8.47877 37.5934 8.3583 37.5703 8.23682 37.5714C8.11535 37.5724 7.9953 37.5976 7.88365 37.6455C7.772 37.6933 7.67098 37.7629 7.58646 37.8502C7.50194 37.9374 7.4356 38.0406 7.3913 38.1537C7.34701 38.2668 7.32563 38.3876 7.32843 38.5091C7.33122 38.6305 7.35813 38.7502 7.40758 38.8612L9.03008 42.6461L6.73292 46.7372C6.52587 47.1049 6.41696 47.5197 6.41667 47.9417V52.25C6.4197 52.563 6.47677 52.8731 6.58533 53.1667H2.75C2.50688 53.1667 2.27373 53.0701 2.10182 52.8982C1.92991 52.7263 1.83333 52.4931 1.83333 52.25C1.83333 45.9635 3.00758 36.1717 3.01858 36.0855Z" fill="#FD9A4D"/>
<path d="M23.8333 18.3333H29.0317L33.4492 21.5976C33.7439 21.8205 34.0953 21.9565 34.4634 21.99C34.8315 22.0236 35.2016 21.9533 35.5318 21.7873C35.8755 21.6144 36.164 21.3487 36.3645 21.0203C36.5651 20.692 36.6697 20.314 36.6667 19.9293V18.3333H38.5C39.2293 18.3333 39.9288 18.0436 40.4445 17.5279C40.9603 17.0122 41.25 16.3127 41.25 15.5833V6.41667C41.25 5.68732 40.9603 4.98785 40.4445 4.47212C39.9288 3.9564 39.2293 3.66667 38.5 3.66667H30.25V2.75C30.25 2.02065 29.9603 1.32118 29.4445 0.805456C28.9288 0.289731 28.2293 0 27.5 0L12.8333 0C12.104 0 11.4045 0.289731 10.8888 0.805456C10.373 1.32118 10.0833 2.02065 10.0833 2.75V11.9167C10.0833 12.646 10.373 13.3455 10.8888 13.8612C11.4045 14.3769 12.104 14.6667 12.8333 14.6667H14.6666V16.2626C14.6634 16.6476 14.768 17.0259 14.9688 17.3544C15.1695 17.683 15.4583 17.9488 15.8024 18.1216C16.1311 18.2877 16.4998 18.3586 16.8667 18.3262C17.2336 18.2938 17.5841 18.1594 17.8786 17.9383L21.0833 15.5678V15.5833C21.0833 16.3127 21.373 17.0122 21.8888 17.5279C22.4045 18.0436 23.104 18.3333 23.8333 18.3333ZM38.5 5.5C38.7431 5.5 38.9763 5.59658 39.1482 5.76849C39.3201 5.94039 39.4167 6.17355 39.4167 6.41667V15.5833C39.4167 15.8264 39.3201 16.0596 39.1482 16.2315C38.9763 16.4034 38.7431 16.5 38.5 16.5H35.75C35.5069 16.5 35.2737 16.5966 35.1018 16.7685C34.9299 16.9404 34.8333 17.1736 34.8333 17.4167V19.9283C34.8364 19.9727 34.8265 20.0171 34.8048 20.0559C34.7832 20.0948 34.7507 20.1266 34.7114 20.1474C34.6848 20.1622 34.6542 20.1681 34.6241 20.1643C34.5939 20.1605 34.5657 20.1472 34.5436 20.1263L29.8778 16.6797C29.7204 16.5627 29.5294 16.4997 29.3333 16.5H23.8333C23.5902 16.5 23.357 16.4034 23.1851 16.2315C23.0132 16.0596 22.9166 15.8264 22.9166 15.5833V14.6667H27.5C27.8847 14.6658 28.265 14.5836 28.6158 14.4257C28.9666 14.2677 29.2802 14.0375 29.5359 13.75H33.9167C34.1598 13.75 34.3929 13.6534 34.5648 13.4815C34.7367 13.3096 34.8333 13.0764 34.8333 12.8333C34.8333 12.5902 34.7367 12.3571 34.5648 12.1852C34.3929 12.0132 34.1598 11.9167 33.9167 11.9167H30.25V10.0833H35.75C35.9931 10.0833 36.2263 9.98676 36.3982 9.81485C36.5701 9.64294 36.6667 9.40978 36.6667 9.16667C36.6667 8.92355 36.5701 8.69039 36.3982 8.51849C36.2263 8.34658 35.9931 8.25 35.75 8.25H30.25V5.5H38.5ZM16.7841 16.4652C16.7624 16.4844 16.7352 16.4965 16.7063 16.4996C16.6774 16.5027 16.6482 16.4968 16.6228 16.4826C16.5834 16.4618 16.5508 16.4301 16.529 16.3912C16.5072 16.3523 16.4971 16.308 16.5 16.2635V13.75C16.5 13.5069 16.4034 13.2737 16.2315 13.1018C16.0596 12.9299 15.8264 12.8333 15.5833 12.8333H12.8333C12.5902 12.8333 12.357 12.7368 12.1851 12.5648C12.0132 12.3929 11.9166 12.1598 11.9166 11.9167V2.75C11.9166 2.50689 12.0132 2.27373 12.1851 2.10182C12.357 1.92991 12.5902 1.83333 12.8333 1.83333H27.5C27.7431 1.83333 27.9763 1.92991 28.1482 2.10182C28.3201 2.27373 28.4167 2.50689 28.4167 2.75V11.9167C28.4167 12.1598 28.3201 12.3929 28.1482 12.5648C27.9763 12.7368 27.7431 12.8333 27.5 12.8333H22C21.8035 12.8345 21.6126 12.8988 21.4555 13.0167L16.7841 16.4652Z" fill="#FD9A4D"/>
<path d="M15.5834 6.41665H24.75C24.9931 6.41665 25.2263 6.32007 25.3982 6.14816C25.5701 5.97625 25.6667 5.74309 25.6667 5.49998C25.6667 5.25686 25.5701 5.02371 25.3982 4.8518C25.2263 4.67989 24.9931 4.58331 24.75 4.58331H15.5834C15.3402 4.58331 15.1071 4.67989 14.9352 4.8518C14.7633 5.02371 14.6667 5.25686 14.6667 5.49998C14.6667 5.74309 14.7633 5.97625 14.9352 6.14816C15.1071 6.32007 15.3402 6.41665 15.5834 6.41665Z" fill="#FD9A4D"/>
<path d="M23.8334 9.16667C23.8334 8.92355 23.7368 8.69039 23.5649 8.51849C23.393 8.34658 23.1598 8.25 22.9167 8.25H15.5834C15.3402 8.25 15.1071 8.34658 14.9352 8.51849C14.7633 8.69039 14.6667 8.92355 14.6667 9.16667C14.6667 9.40978 14.7633 9.64294 14.9352 9.81485C15.1071 9.98676 15.3402 10.0833 15.5834 10.0833H22.9167C23.1598 10.0833 23.393 9.98676 23.5649 9.81485C23.7368 9.64294 23.8334 9.40978 23.8334 9.16667Z" fill="#FD9A4D"/>
</g>
<defs>
<clipPath id="clip0_19_236">
<rect width="55" height="55" fill="white"/>
</clipPath>
</defs>
</svg>
