<svg width="15" height="16" viewBox="0 0 15 16" fill="none" xmlns="http://www.w3.org/2000/svg">
<g clip-path="url(#clip0_49_40)">
<path d="M11.3086 7.1084C11.6322 7.1084 11.8945 6.84607 11.8945 6.52246C11.8945 6.19886 11.6322 5.93652 11.3086 5.93652C10.985 5.93652 10.7227 6.19886 10.7227 6.52246C10.7227 6.84607 10.985 7.1084 11.3086 7.1084Z" fill="#8860D0"/>
<path d="M12.6562 1.54199H11.8945V0.956055C11.8945 0.632441 11.6322 0.370117 11.3086 0.370117C10.985 0.370117 10.7227 0.632441 10.7227 0.956055V1.54199H8.05664V0.956055C8.05664 0.632441 7.79432 0.370117 7.4707 0.370117C7.14709 0.370117 6.88477 0.632441 6.88477 0.956055V1.54199H4.24805V0.956055C4.24805 0.632441 3.98572 0.370117 3.66211 0.370117C3.3385 0.370117 3.07617 0.632441 3.07617 0.956055V1.54199H2.34375C1.05141 1.54199 0 2.5934 0 3.88574V13.0264C0 14.3187 1.05141 15.3701 2.34375 15.3701H6.82617C7.14979 15.3701 7.41211 15.1078 7.41211 14.7842C7.41211 14.4606 7.14979 14.1982 6.82617 14.1982H2.34375C1.69758 14.1982 1.17188 13.6725 1.17188 13.0264V3.88574C1.17188 3.23957 1.69758 2.71387 2.34375 2.71387H3.07617V3.2998C3.07617 3.62342 3.3385 3.88574 3.66211 3.88574C3.98572 3.88574 4.24805 3.62342 4.24805 3.2998V2.71387H6.88477V3.2998C6.88477 3.62342 7.14709 3.88574 7.4707 3.88574C7.79432 3.88574 8.05664 3.62342 8.05664 3.2998V2.71387H10.7227V3.2998C10.7227 3.62342 10.985 3.88574 11.3086 3.88574C11.6322 3.88574 11.8945 3.62342 11.8945 3.2998V2.71387H12.6562C13.3024 2.71387 13.8281 3.23957 13.8281 3.88574V7.22559C13.8281 7.5492 14.0904 7.81152 14.4141 7.81152C14.7377 7.81152 15 7.5492 15 7.22559V3.88574C15 2.5934 13.9486 1.54199 12.6562 1.54199Z" fill="#8860D0"/>
<path d="M11.4551 8.28027C9.50039 8.28027 7.91016 9.87051 7.91016 11.8252C7.91016 13.7799 9.50039 15.3701 11.4551 15.3701C13.4098 15.3701 15 13.7799 15 11.8252C15 9.87051 13.4098 8.28027 11.4551 8.28027ZM11.4551 14.1982C10.1466 14.1982 9.08203 13.1337 9.08203 11.8252C9.08203 10.5167 10.1466 9.45215 11.4551 9.45215C12.7636 9.45215 13.8281 10.5167 13.8281 11.8252C13.8281 13.1337 12.7636 14.1982 11.4551 14.1982Z" fill="#8860D0"/>
<path d="M12.3047 11.2393H12.041V10.624C12.041 10.3004 11.7787 10.0381 11.4551 10.0381C11.1315 10.0381 10.8691 10.3004 10.8691 10.624V11.8252C10.8691 12.1488 11.1315 12.4111 11.4551 12.4111H12.3047C12.6283 12.4111 12.8906 12.1488 12.8906 11.8252C12.8906 11.5016 12.6283 11.2393 12.3047 11.2393Z" fill="#8860D0"/>
<path d="M8.75977 7.1084C9.08337 7.1084 9.3457 6.84607 9.3457 6.52246C9.3457 6.19886 9.08337 5.93652 8.75977 5.93652C8.43616 5.93652 8.17383 6.19886 8.17383 6.52246C8.17383 6.84607 8.43616 7.1084 8.75977 7.1084Z" fill="#8860D0"/>
<path d="M6.21094 9.65723C6.53454 9.65723 6.79688 9.39489 6.79688 9.07129C6.79688 8.74768 6.53454 8.48535 6.21094 8.48535C5.88733 8.48535 5.625 8.74768 5.625 9.07129C5.625 9.39489 5.88733 9.65723 6.21094 9.65723Z" fill="#8860D0"/>
<path d="M3.66211 7.1084C3.98571 7.1084 4.24805 6.84607 4.24805 6.52246C4.24805 6.19886 3.98571 5.93652 3.66211 5.93652C3.33851 5.93652 3.07617 6.19886 3.07617 6.52246C3.07617 6.84607 3.33851 7.1084 3.66211 7.1084Z" fill="#8860D0"/>
<path d="M3.66211 9.65723C3.98571 9.65723 4.24805 9.39489 4.24805 9.07129C4.24805 8.74768 3.98571 8.48535 3.66211 8.48535C3.33851 8.48535 3.07617 8.74768 3.07617 9.07129C3.07617 9.39489 3.33851 9.65723 3.66211 9.65723Z" fill="#8860D0"/>
<path d="M3.66211 12.2061C3.98571 12.2061 4.24805 11.9437 4.24805 11.6201C4.24805 11.2965 3.98571 11.0342 3.66211 11.0342C3.33851 11.0342 3.07617 11.2965 3.07617 11.6201C3.07617 11.9437 3.33851 12.2061 3.66211 12.2061Z" fill="#8860D0"/>
<path d="M6.21094 12.2061C6.53454 12.2061 6.79688 11.9437 6.79688 11.6201C6.79688 11.2965 6.53454 11.0342 6.21094 11.0342C5.88733 11.0342 5.625 11.2965 5.625 11.6201C5.625 11.9437 5.88733 12.2061 6.21094 12.2061Z" fill="#8860D0"/>
<path d="M6.21094 7.1084C6.53454 7.1084 6.79688 6.84607 6.79688 6.52246C6.79688 6.19886 6.53454 5.93652 6.21094 5.93652C5.88733 5.93652 5.625 6.19886 5.625 6.52246C5.625 6.84607 5.88733 7.1084 6.21094 7.1084Z" fill="#8860D0"/>
</g>
<defs>
<clipPath id="clip0_49_40">
<rect width="15" height="15" fill="white" transform="translate(0 0.370117)"/>
</clipPath>
</defs>
</svg>
