<svg width="15" height="16" viewBox="0 0 15 16" fill="none" xmlns="http://www.w3.org/2000/svg">
<g clip-path="url(#clip0_49_18)">
<path d="M12.8033 10.0668C11.9864 9.24994 11.0141 8.64522 9.95329 8.27916C11.0895 7.49661 11.8359 6.18695 11.8359 4.70605C11.8359 2.31522 9.89083 0.370117 7.5 0.370117C5.10917 0.370117 3.16406 2.31522 3.16406 4.70605C3.16406 6.18695 3.91052 7.49661 5.04674 8.27916C3.9859 8.64522 3.01359 9.24994 2.19671 10.0668C0.780147 11.4834 0 13.3668 0 15.3701H1.17188C1.17188 11.8808 4.01065 9.04199 7.5 9.04199C10.9893 9.04199 13.8281 11.8808 13.8281 15.3701H15C15 13.3668 14.2199 11.4834 12.8033 10.0668ZM7.5 7.87012C5.75534 7.87012 4.33594 6.45074 4.33594 4.70605C4.33594 2.96137 5.75534 1.54199 7.5 1.54199C9.24466 1.54199 10.6641 2.96137 10.6641 4.70605C10.6641 6.45074 9.24466 7.87012 7.5 7.87012Z" fill="#8860D0"/>
</g>
<defs>
<clipPath id="clip0_49_18">
<rect width="15" height="15" fill="white" transform="translate(0 0.370117)"/>
</clipPath>
</defs>
</svg>
