<svg width="80" height="81" viewBox="0 0 80 81" fill="none" xmlns="http://www.w3.org/2000/svg">
<path d="M40 79.4619C61.5736 79.4619 79.0625 61.973 79.0625 40.3994C79.0625 18.8258 61.5736 1.33691 40 1.33691C18.4264 1.33691 0.9375 18.8258 0.9375 40.3994C0.9375 61.973 18.4264 79.4619 40 79.4619Z" fill="url(#paint0_linear_22_27)"/>
<path opacity="0.49" d="M77.7367 50.5167L48.1367 20.9167H31.8633V29.7471L37.6395 35.5233V59.8827L54.4558 76.6983C60.1031 74.4422 65.1473 70.9015 69.1883 66.357C73.2293 61.8125 76.1562 56.3891 77.7367 50.5167Z" fill="url(#paint1_linear_22_27)"/>
<path d="M48.1367 20.9167V59.8821H37.6395V29.7469H31.8633V20.9167H48.1367Z" fill="white"/>
<defs>
<linearGradient id="paint0_linear_22_27" x1="0.9375" y1="40.3994" x2="79.0625" y2="40.3994" gradientUnits="userSpaceOnUse">
<stop stop-color="#FFB64D"/>
<stop offset="0.5" stop-color="#F9880D"/>
<stop offset="1" stop-color="#FFB54A"/>
</linearGradient>
<linearGradient id="paint1_linear_22_27" x1="27.6344" y1="25.1457" x2="69.0641" y2="66.5753" gradientUnits="userSpaceOnUse">
<stop/>
<stop offset="1" stop-opacity="0"/>
</linearGradient>
</defs>
</svg>
