<svg width="80" height="81" viewBox="0 0 80 81" fill="none" xmlns="http://www.w3.org/2000/svg">
<path d="M40 79.4619C61.5736 79.4619 79.0625 61.973 79.0625 40.3994C79.0625 18.8258 61.5736 1.33691 40 1.33691C18.4264 1.33691 0.9375 18.8258 0.9375 40.3994C0.9375 61.973 18.4264 79.4619 40 79.4619Z" fill="url(#paint0_linear_22_71)"/>
<path opacity="0.49" d="M78.6686 45.9464L53.1875 20.4656H26.4501V29.3475L34.5823 37.4795L33.1834 39.7792V41.951L42.074 50.8417C41.4464 51.1724 40.7506 51.3532 40.0414 51.3698L35.4736 46.802H25.4725C25.5861 50.7164 27.0004 54.0184 29.3833 56.3801L50.9168 77.9139C65.455 73.6903 76.4931 61.2465 78.6686 45.9464Z" fill="url(#paint1_linear_22_71)"/>
<path d="M45.3668 34.7756C50.9533 36.1771 54.5275 40.6995 54.5275 46.7342C54.5275 54.6585 48.3868 60.3334 39.8367 60.3334C31.4631 60.3334 25.7067 54.8676 25.4725 46.8021H35.4739C35.5909 49.549 37.2992 51.3743 39.8615 51.3743C42.525 51.3743 44.3928 49.4137 44.3928 46.566C44.3928 43.7184 42.4572 41.951 39.4248 41.951H33.1834V39.7792L39.5284 29.3475H26.4503V20.4656H53.1875V22.2557L45.3668 34.7756Z" fill="white"/>
<defs>
<linearGradient id="paint0_linear_22_71" x1="0.9375" y1="40.3994" x2="79.0625" y2="40.3994" gradientUnits="userSpaceOnUse">
<stop stop-color="#07E5CA"/>
<stop offset="0.5" stop-color="#07E5CA"/>
<stop offset="1" stop-color="#07E5CA"/>
</linearGradient>
<linearGradient id="paint1_linear_22_71" x1="24.889" y1="22.0268" x2="69.2506" y2="66.3884" gradientUnits="userSpaceOnUse">
<stop/>
<stop offset="1" stop-opacity="0"/>
</linearGradient>
</defs>
</svg>
