<svg width="80" height="81" viewBox="0 0 80 81" fill="none" xmlns="http://www.w3.org/2000/svg">
<path d="M40 79.4619C61.5736 79.4619 79.0625 61.973 79.0625 40.3994C79.0625 18.8258 61.5736 1.33691 40 1.33691C18.4264 1.33691 0.9375 18.8258 0.9375 40.3994C0.9375 61.973 18.4264 79.4619 40 79.4619Z" fill="url(#paint0_linear_22_67)"/>
<path opacity="0.49" d="M77.4844 51.4164L50.6195 24.5516C48.1453 21.9545 44.375 20.4197 39.8331 20.4197C31.3019 20.4197 26.1378 25.6275 26.1378 33.5061V34.2276L36.6147 44.7045C34.0074 47.9423 30.4224 52.2139 25.5097 58.0081V60.38L44.3499 79.2197C60.1597 77.4676 73.1224 66.2822 77.4844 51.4164Z" fill="url(#paint1_linear_22_67)"/>
<path d="M54.4903 51.138V60.3794H25.5097V58.0075C41.1875 39.5162 43.3469 36.528 43.3469 33.1826C43.3469 31.0698 41.9549 29.653 39.9591 29.653C37.7716 29.653 36.438 31.1283 36.438 33.4739V34.227H26.1378V33.5061C26.1378 25.6275 31.3017 20.4197 39.8331 20.4197C48.0988 20.4197 53.8055 25.5016 53.8055 32.817C53.8055 37.7203 51.9914 41.4844 43.6575 51.138H54.4903Z" fill="white"/>
<defs>
<linearGradient id="paint0_linear_22_67" x1="0.9375" y1="40.3994" x2="79.0625" y2="40.3994" gradientUnits="userSpaceOnUse">
<stop stop-color="#2BC4F3"/>
<stop offset="0.5" stop-color="#00AEEE"/>
<stop offset="1" stop-color="#0095DA"/>
</linearGradient>
<linearGradient id="paint1_linear_22_67" x1="24.6972" y1="29.0956" x2="65.6202" y2="70.0186" gradientUnits="userSpaceOnUse">
<stop/>
<stop offset="1" stop-opacity="0"/>
</linearGradient>
</defs>
</svg>
